<svg xmlns="http://www.w3.org/2000/svg" viewBox="0 0 896 896" fill="black">
  <path d="M448,0C200.6,0,0,200.6,0,448s200.6,448,448,448s448-200.6,448-448S695.4,0,448,0z M448,806.4 c-197.9,0-358.4-160.5-358.4-358.4S250.1,89.6,448,89.6S806.4,250.1,806.4,448S645.9,806.4,448,806.4z"/>
  <path d="M448,179.2c-148.3,0-268.8,120.5-268.8,268.8c0,74.2,30.1,141.3,78.7,189.9l63.4-63.4c-32.4-32.4-52.5-77.2-52.5-126.5 c0-98.9,80.3-179.2,179.2-179.2s179.2,80.3,179.2,179.2c0,49.3-20.1,94.1-52.5,126.5l63.4,63.4c48.6-48.6,78.7-115.7,78.7-189.9 C716.8,299.7,596.3,179.2,448,179.2z"/>
  <circle cx="358.4" cy="448" r="44.8"/>
  <path d="M537.6,358.4c-24.7,0-44.8,20.1-44.8,44.8c0,12.4,5,23.6,13.1,31.7l0,0c8.1,8.1,19.3,13.1,31.7,13.1 c24.7,0,44.8-20.1,44.8-44.8S562.3,358.4,537.6,358.4z"/>
</svg>

